<svg xmlns="http://www.w3.org/2000/svg" viewBox="0 0 800 450">
  <defs>
    <clipPath id="term-clip1"><rect x="2" y="28" width="262" height="420" rx="0"/></clipPath>
    <clipPath id="term-clip2"><rect x="268" y="28" width="262" height="420" rx="0"/></clipPath>
    <clipPath id="term-clip3"><rect x="534" y="28" width="264" height="420" rx="0"/></clipPath>
  </defs>

  <!-- Bash -->
  <rect x="0" y="0" width="266" height="450" rx="6" fill="#2d2d3d" stroke="#444" stroke-width="1"/>
  <rect x="0" y="0" width="266" height="28" rx="6" fill="#3d3d4d"/>
  <rect x="0" y="14" width="266" height="14" fill="#3d3d4d"/>
  <circle cx="14" cy="14" r="5" fill="#ff5f57"/>
  <circle cx="28" cy="14" r="5" fill="#fdbc40"/>
  <circle cx="42" cy="14" r="5" fill="#33c748"/>
  <text x="133" y="19" fill="#aaa" font-size="10" font-family="monospace" text-anchor="middle">bash</text>

  <g clip-path="url(#term-clip1)">
    <text x="8" y="48" fill="#98c379" font-size="12" font-family="monospace">bash$</text>
    <text x="48" y="64" fill="#61afef" font-size="12" font-family="monospace">cd ~/projects</text>
    <text x="8" y="80" fill="#98c379" font-size="12" font-family="monospace">bash-5.2$</text>
    <text x="8" y="96" fill="#abb2bf" font-size="12" font-family="monospace">bash: command not found: please</text>
    <text x="8" y="112" fill="#98c379" font-size="12" font-family="monospace">bash-5.2$</text>
    <text x="48" y="128" fill="#abb2bf" font-size="12" font-family="monospace">echo "Hello World"</text>
    <text x="8" y="144" fill="#abb2bf" font-size="12" font-family="monospace">Hello World</text>
    <text x="8" y="160" fill="#98c379" font-size="12" font-family="monospace">bash-5.2$</text>
    <text x="8" y="176" fill="#abb2bf" font-size="12" font-family="monospace">for i in {1..3}; do</text>
    <text x="28" y="192" fill="#e5c07b" font-size="12" font-family="monospace">echo "Item $i"</text>
    <text x="8" y="208" fill="#abb2bf" font-size="12" font-family="monospace">done</text>
    <text x="8" y="224" fill="#abb2bf" font-size="12" font-family="monospace">Item 1</text>
    <text x="8" y="240" fill="#abb2bf" font-size="12" font-family="monospace">Item 2</text>
    <text x="8" y="256" fill="#abb2bf" font-size="12" font-family="monospace">Item 3</text>
    <text x="8" y="272" fill="#98c379" font-size="12" font-family="monospace">bash-5.2$</text>
    <text x="48" y="288" fill="#61afef" font-size="12" font-family="monospace">ls -la</text>
    <text x="8" y="304" fill="#abb2bf" font-size="12" font-family="monospace">total 32</text>
    <text x="8" y="320" fill="#61afef" font-size="12" font-family="monospace">drwxr-xr-x</text>
    <text x="88" y="320" fill="#abb2bf" font-size="12" font-family="monospace">.</text>
    <text x="8" y="336" fill="#61afef" font-size="12" font-family="monospace">drwxr-xr-x</text>
    <text x="88" y="336" fill="#abb2bf" font-size="12" font-family="monospace">..</text>
    <text x="8" y="352" fill="#61afef" font-size="12" font-family="monospace">-rw-r--r--</text>
    <text x="88" y="352" fill="#e5c07b" font-size="12" font-family="monospace">README.md</text>
    <text x="8" y="368" fill="#98c379" font-size="12" font-family="monospace">bash-5.2$</text>
    <rect x="88" y="375" width="8" height="14" fill="#98c379" opacity="0.6"/>
  </g>

  <!-- Zsh -->
  <rect x="268" y="0" width="264" height="450" rx="6" fill="#1e1e2e" stroke="#444" stroke-width="1"/>
  <rect x="268" y="0" width="264" height="28" rx="6" fill="#2e2e3e"/>
  <rect x="268" y="14" width="264" height="14" fill="#2e2e3e"/>
  <circle cx="282" cy="14" r="5" fill="#ff5f57"/>
  <circle cx="296" cy="14" r="5" fill="#fdbc40"/>
  <circle cx="310" cy="14" r="5" fill="#33c748"/>
  <text x="400" y="19" fill="#aaa" font-size="10" font-family="monospace" text-anchor="middle">zsh (oh-my-zsh)</text>

  <g clip-path="url(#term-clip2)">
    <rect x="276" y="36" width="248" height="20" rx="3" fill="#313244"/>
    <text x="280" y="50" fill="#89b4fa" font-size="11" font-family="monospace">~/.config </text>
    <text x="360" y="50" fill="#a6e3a1" font-size="11" font-family="monospace">main</text>
    <text x="400" y="50" fill="#6c7086" font-size="11" font-family="monospace"></text>
    <text x="456" y="50" fill="#a6e3a1" font-size="10" font-family="monospace">✦</text>

    <text x="272" y="76" fill="#89b4fa" font-size="12" font-family="monospace">~/.config </text>
    <text x="360" y="76" fill="#a6e3a1" font-size="12" font-family="monospace">main</text>
    <text x="400" y="76" fill="#6c7086" font-size="12" font-family="monospace"></text>
    <text x="48" y="96" fill="#f5c2e7" font-size="12" font-family="monospace">git status</text>
    <text x="8" y="112" fill="#a6e3a1" font-size="12" font-family="monospace">On branch main</text>
    <text x="8" y="128" fill="#f38ba8" font-size="12" font-family="monospace">Changes not staged:</text>
    <text x="28" y="144" fill="#f38ba8" font-size="12" font-family="monospace">modified: config.yaml</text>

    <text x="272" y="168" fill="#89b4fa" font-size="12" font-family="monospace">~/.config </text>
    <text x="360" y="168" fill="#a6e3a1" font-size="12" font-family="monospace">main</text>
    <text x="400" y="168" fill="#6c7086" font-size="12" font-family="monospace">✗</text>
    <text x="8" y="188" fill="#f5c2e7" font-size="12" font-family="monospace">git diff config.yaml</text>

    <text x="8" y="208" fill="#89b4fa" font-size="12" font-family="monospace">diff --git a/config.yaml b/config.yaml</text>
    <text x="8" y="224" fill="#a6e3a1" font-size="12" font-family="monospace">theme: dark</text>
    <text x="8" y="240" fill="#f38ba8" font-size="12" font-family="monospace">theme: nord</text>

    <text x="272" y="264" fill="#89b4fa" font-size="12" font-family="monospace">~/.config </text>
    <text x="360" y="264" fill="#a6e3a1" font-size="12" font-family="monospace">main</text>
    <text x="400" y="264" fill="#6c7086" font-size="12" font-family="monospace">✦</text>
    <rect x="440" y="270" width="8" height="14" fill="#89b4fa" opacity="0.6"/>
  </g>

  <!-- Fish -->
  <rect x="534" y="0" width="266" height="450" rx="6" fill="#0a0a14" stroke="#444" stroke-width="1"/>
  <rect x="534" y="0" width="266" height="28" rx="6" fill="#1a1a24"/>
  <rect x="534" y="14" width="266" height="14" fill="#1a1a24"/>
  <circle cx="548" cy="14" r="5" fill="#ff5f57"/>
  <circle cx="562" cy="14" r="5" fill="#fdbc40"/>
  <circle cx="576" cy="14" r="5" fill="#33c748"/>
  <text x="667" y="19" fill="#aaa" font-size="10" font-family="monospace" text-anchor="middle">fish</text>

  <g clip-path="url(#term-clip3)">
    <rect x="8" y="36" width="200" height="20" rx="3" fill="#1a1a2e" stroke="#00ff88" stroke-width="0.5"/>
    <text x="16" y="50" fill="#00ff88" font-size="11" font-family="monospace"> ~/code/app</text>
    <text x="100" y="50" fill="#ffcc00" font-size="11" font-family="monospace"> main</text>

    <text x="8" y="72" fill="#00ff88" font-size="12" font-family="monospace">➜</text>
    <text x="28" y="72" fill="#00d4aa" font-size="12" font-family="monospace">~/c/app</text>
    <text x="88" y="72" fill="#ffcc00" font-size="12" font-family="monospace">main</text>
    <text x="128" y="72" fill="#888" font-size="11" font-family="monospace">via</text>
    <text x="148" y="72" fill="#ff6b6b" font-size="11" font-family="monospace">v18.16.0</text>

    <text x="8" y="96" fill="#ff6b6b" font-size="12" font-family="monospace">npm run dev</text>

    <text x="8" y="116" fill="#888" font-size="11" font-family="monospace">Your git branch has diverged from 'origin/main'</text>
    <text x="8" y="132" fill="#888" font-size="11" font-family="monospace">Suggestion:</text>
    <text x="80" y="132" fill="#00d4aa" font-size="11" font-family="monospace">git pull --rebase</text>

    <!-- Ghost text suggestion -->
    <text x="8" y="156" fill="#00ff88" font-size="12" font-family="monospace">➜</text>
    <text x="28" y="156" fill="#00d4aa" font-size="12" font-family="monospace">~/c/app</text>
    <text x="88" y="156" fill="#ffcc00" font-size="12" font-family="monospace">main</text>
    <text x="148" y="156" fill="#888" font-size="11" font-family="monospace">npm</text>

    <!-- Ghost text (faint) -->
    <text x="18" y="176" fill="#00ff88" font-size="12" font-family="monospace">➜</text>
    <text x="38" y="176" fill="#00d4aa" font-size="12" font-family="monospace">~/c/app</text>
    <text x="98" y="176" fill="#ffcc00" font-size="12" font-family="monospace">main</text>
    <text x="8" y="200" fill="#00ff88" font-size="12" font-family="monospace">➜</text>
    <text x="28" y="200" fill="#00d4aa" font-size="12" font-family="monospace">~/c/app</text>
    <text x="88" y="200" fill="#ffcc00" font-size="12" font-family="monospace">main</text>
    <text x="28" y="224" fill="#f5f5f5" font-size="12" font-family="monospace">ls</text>

    <text x="8" y="248" fill="#00d4aa" font-size="12" font-family="monospace">index.html    style.css</text>
    <text x="8" y="264" fill="#00d4aa" font-size="12" font-family="monospace">app.js        package.json</text>
    <text x="8" y="280" fill="#ffcc00" font-size="12" font-family="monospace">node_modules/</text>

    <text x="8" y="304" fill="#00ff88" font-size="12" font-family="monospace">➜</text>
    <text x="28" y="304" fill="#00d4aa" font-size="12" font-family="monospace">~/c/app</text>
    <text x="88" y="304" fill="#ffcc00" font-size="12" font-family="monospace">main</text>
    <text x="8" y="328" fill="#00ff88" font-size="12" font-family="monospace">➜</text>
    <text x="28" y="328" fill="#00d4aa" font-size="12" font-family="monospace">~/c/app</text>
    <text x="88" y="328" fill="#ffcc00" font-size="12" font-family="monospace">main</text>

    <!-- Ghost suggestion -->
    <text x="28" y="348" fill="#404060" font-size="12" font-family="monospace">npm audit fix</text>

    <rect x="140" y="335" width="8" height="14" fill="#00ff88" opacity="0.6"/>
  </g>
</svg>
